<?xml version="1.0" standalone="no"?>
<!DOCTYPE svg PUBLIC "-//W3C//DTD SVG 20010904//EN"
 "http://www.w3.org/TR/2001/REC-SVG-20010904/DTD/svg10.dtd">
<svg version="1.0" xmlns="http://www.w3.org/2000/svg"
 width="517.000000pt" height="517.000000pt" viewBox="0 0 517.000000 517.000000"
 preserveAspectRatio="xMidYMid meet">
<metadata>
Created by potrace 1.14, written by Peter Selinger 2001-2017
</metadata>
<g transform="translate(0.000000,517.000000) scale(0.100000,-0.100000)"
fill="#000000" stroke="none">
<path d="M1548 4908 c-7 -3 -34 -15 -60 -25 -44 -18 -128 -84 -128 -102 0 -4
-8 -16 -18 -27 -23 -24 -122 -191 -122 -204 0 -6 -4 -10 -9 -10 -5 0 -14 -12
-20 -27 -6 -16 -22 -46 -35 -68 -25 -40 -56 -93 -111 -190 -31 -55 -76 -118
-87 -123 -5 -2 -8 -9 -8 -16 0 -13 -41 -36 -64 -36 -8 0 -16 7 -20 15 -3 8
-11 15 -18 15 -15 0 -200 186 -240 240 -41 56 -309 320 -353 348 -135 86 -258
-19 -204 -174 28 -80 124 -254 211 -382 18 -26 38 -56 43 -65 6 -9 45 -67 87
-129 76 -111 105 -149 150 -197 13 -14 28 -33 34 -43 21 -37 200 -212 251
-245 39 -25 63 -33 96 -33 42 0 49 4 116 72 39 40 71 75 71 79 0 3 13 22 30
40 16 19 30 37 30 40 0 3 10 18 23 31 12 14 42 52 67 83 25 31 59 74 75 95 17
20 37 48 45 60 8 13 30 40 48 60 17 21 32 41 32 45 0 4 14 24 30 44 41 48 44
52 66 86 10 17 21 32 24 35 16 15 60 80 60 88 0 6 4 12 8 14 15 6 121 165 151
228 27 55 31 74 31 147 0 81 -1 85 -37 133 -21 28 -41 50 -46 50 -4 0 -17 9
-28 19 -30 28 -137 46 -171 29z"/>
<path d="M4634 4351 c-3 -3 -83 -9 -177 -13 -340 -14 -392 -17 -427 -24 -19
-4 -64 -8 -100 -9 -36 -1 -90 -5 -120 -9 -30 -4 -87 -8 -126 -10 -39 -2 -76
-6 -81 -9 -5 -3 -43 -6 -84 -7 -41 -1 -87 -6 -104 -10 -16 -5 -68 -11 -115
-14 -47 -4 -128 -10 -180 -16 -52 -5 -127 -12 -167 -14 -40 -3 -80 -9 -90 -14
-10 -5 -40 -8 -68 -7 -27 0 -66 -4 -85 -11 -19 -6 -40 -9 -47 -7 -6 2 -14 -1
-18 -6 -3 -6 -14 -11 -24 -11 -9 0 -27 -9 -39 -20 -17 -17 -22 -32 -22 -75 0
-46 4 -58 27 -80 24 -21 45 -30 56 -23 1 1 13 -4 26 -11 13 -7 44 -15 70 -17
25 -2 96 -9 156 -14 61 -5 142 -11 180 -13 39 -3 82 -8 96 -12 26 -6 74 -10
241 -19 43 -2 82 -8 89 -11 6 -4 59 -9 117 -11 59 -3 170 -9 247 -14 77 -5
178 -11 225 -13 47 -2 101 -7 120 -12 37 -8 101 -11 418 -21 134 -4 197 -2
206 5 8 7 27 11 42 10 83 -2 210 85 233 160 15 53 16 183 1 212 -22 41 -93
110 -128 125 -48 20 -74 25 -177 36 -137 13 -165 15 -171 9z"/>
<path d="M1595 3328 c-98 -34 -132 -56 -175 -118 -13 -19 -27 -37 -30 -40 -13
-12 -50 -70 -50 -79 0 -5 -3 -11 -7 -13 -5 -1 -21 -28 -37 -58 -16 -30 -36
-63 -44 -72 -8 -10 -11 -18 -7 -18 4 0 1 -8 -7 -17 -8 -10 -45 -72 -83 -138
-37 -66 -79 -134 -92 -152 -12 -17 -23 -36 -23 -41 0 -6 -7 -12 -15 -16 -8 -3
-15 -12 -15 -21 0 -8 -15 -21 -32 -28 -30 -12 -36 -11 -67 10 -49 33 -187 169
-231 228 -44 59 -349 365 -364 365 -5 0 -17 6 -25 14 -42 37 -138 22 -173 -27
-39 -54 -31 -126 26 -244 27 -54 62 -120 79 -148 60 -98 242 -370 259 -389 10
-11 18 -23 18 -27 0 -7 34 -51 95 -124 14 -16 33 -40 42 -51 40 -48 122 -132
177 -182 109 -98 178 -113 243 -51 51 48 107 110 112 122 2 6 15 21 27 34 13
13 24 27 24 31 0 4 12 21 28 38 15 17 54 66 87 109 33 43 74 95 90 116 17 21
43 56 58 76 15 21 40 54 55 74 15 20 36 48 47 64 11 15 29 39 40 54 11 14 36
49 55 76 19 28 38 52 42 53 4 2 8 8 8 13 0 8 67 107 80 119 3 3 22 39 42 80
32 66 36 85 37 153 1 74 -1 81 -32 120 -47 59 -78 86 -110 93 -15 4 -30 11
-33 15 -7 12 -81 10 -119 -3z"/>
<path d="M4694 2841 c-4 -4 -191 -14 -504 -26 -63 -2 -126 -8 -140 -11 -14 -4
-59 -8 -100 -9 -41 -1 -93 -5 -115 -10 -22 -4 -69 -9 -105 -10 -36 -1 -85 -5
-110 -9 -25 -4 -77 -10 -115 -12 -81 -5 -217 -18 -360 -34 -216 -24 -272 -30
-330 -33 -33 -2 -69 -8 -80 -14 -11 -5 -30 -8 -43 -7 -12 0 -25 -3 -28 -7 -3
-5 -13 -9 -23 -9 -34 0 -61 -43 -62 -99 -2 -49 1 -56 32 -82 19 -16 39 -27 44
-25 6 2 21 -1 35 -6 14 -6 43 -12 65 -14 128 -13 268 -25 320 -28 33 -1 80 -6
105 -11 25 -4 70 -9 100 -11 30 -1 107 -8 170 -14 63 -7 151 -13 195 -14 44
-1 97 -6 117 -10 36 -8 137 -14 338 -19 52 -2 106 -7 120 -12 14 -4 75 -10
135 -12 303 -11 495 -13 495 -5 0 4 17 9 37 10 101 7 197 68 233 147 26 57 28
181 4 228 -48 92 -140 144 -279 158 -44 4 -95 9 -113 11 -18 2 -35 2 -38 -1z"/>
<path d="M1630 1788 c-14 -6 -41 -17 -60 -26 -19 -8 -46 -24 -59 -36 -24 -22
-122 -149 -134 -176 -4 -8 -23 -42 -42 -75 -19 -33 -43 -77 -52 -97 -10 -21
-21 -38 -25 -38 -5 0 -8 -5 -8 -10 0 -6 -11 -27 -23 -48 -13 -20 -44 -71 -68
-112 -46 -80 -89 -143 -101 -148 -5 -2 -8 -10 -8 -18 0 -8 -14 -21 -32 -28
-30 -13 -35 -12 -68 13 -40 30 -240 231 -240 242 0 3 -38 46 -85 95 -47 49
-88 93 -93 97 -29 31 -141 133 -167 153 -45 34 -90 45 -136 35 -45 -10 -65
-28 -83 -73 -23 -59 -12 -107 57 -243 72 -144 299 -495 382 -592 6 -6 30 -37
55 -69 74 -93 221 -243 275 -279 47 -31 76 -39 132 -36 23 1 111 81 158 146
17 22 35 46 42 55 88 111 185 236 213 274 19 26 50 66 68 89 44 56 53 67 82
108 13 19 28 39 32 44 23 28 98 136 98 141 0 4 9 15 21 25 11 9 20 20 19 24
-1 4 7 18 19 31 12 13 21 28 21 33 0 4 9 16 20 26 11 10 20 24 20 32 0 7 5 13
10 13 6 0 10 5 10 10 0 6 11 33 25 62 20 42 25 67 25 134 0 54 -4 87 -13 96
-7 7 -25 30 -41 50 -52 69 -174 107 -246 76z"/>
<path d="M4695 1292 c-4 -5 -267 -19 -490 -26 -60 -2 -126 -7 -145 -12 -19 -4
-69 -9 -110 -9 -41 -1 -97 -5 -125 -10 -27 -4 -80 -9 -117 -9 -36 -1 -70 -4
-74 -9 -4 -4 -41 -7 -83 -7 -42 0 -91 -4 -109 -9 -18 -6 -69 -11 -115 -12 -45
-1 -87 -5 -92 -9 -6 -5 -46 -11 -90 -13 -129 -9 -218 -17 -245 -24 -14 -3 -50
-7 -80 -8 -30 -1 -65 -4 -77 -9 -12 -4 -31 -9 -44 -11 -90 -18 -118 -43 -120
-108 -3 -60 28 -97 94 -114 72 -17 290 -42 422 -46 39 -2 81 -6 93 -11 13 -4
58 -10 100 -12 122 -6 194 -12 232 -18 19 -4 78 -9 130 -11 52 -3 156 -10 230
-15 74 -5 176 -11 225 -13 50 -2 108 -7 129 -11 73 -16 626 -31 626 -18 0 5
22 12 49 14 55 5 130 39 171 77 44 39 63 95 65 185 2 91 -8 118 -70 180 -51
51 -118 76 -230 87 -49 4 -102 10 -117 12 -15 2 -30 2 -33 -1z"/>
</g>
</svg>
